<?xml version="1.0" encoding="UTF-8"?>
<svg id="Livello_3" data-name="Livello 3" xmlns="http://www.w3.org/2000/svg" viewBox="0 0 80 80">
  <defs>
    <style>
      .cls-1 {
        fill: #caab66;
        stroke-width: 0px;
      }
    </style>
  </defs>
  <path class="cls-1" d="m44.38,36.12c5.31-7.38,14.41-10.49,23.25-10.17v-2.59c-3.13.07-6.26.48-9.3,1.33-7.61,2-14.19,7.5-17.31,14.73-.06.15-.12.29-.18.44l.06-6.47c1.62-4.04,4.37-7.73,7.86-10.29,3.83-2.82,8.61-4.04,13.33-3.89v-2.59c-2.59.07-5.18.5-7.64,1.33-4.89,1.65-9.09,5.15-11.8,9.5-.64,1.02-1.21,2.08-1.72,3.16l.07-6.99c.47-1.13,1.08-2.23,1.77-3.22,2.96-4.42,8.17-6.66,13.4-6.35v-2.59c-1.94.07-3.88.39-5.73,1.02-3.69,1.22-6.86,3.87-8.79,7.2-.22.38-.42.76-.62,1.14l.07-7.11c1.63-3.17,4.76-5.44,8.48-5.1v-2.59c-.55.08-1.31.11-1.84.26-2.83.55-5.13,2.4-6.61,4.79l.1-11.07h-2.44l.1,11.06c-1.78-2.91-4.72-4.84-8.46-5.04,0,0,0,2.59,0,2.59,3.73-.34,6.85,1.93,8.48,5.1l.07,7.07c-2.82-5.65-8.45-9.18-15.14-9.31,0,0,0,2.59,0,2.59,5.23-.31,10.44,1.93,13.4,6.35.69,1,1.3,2.09,1.77,3.22l.07,6.99c-3.86-8.56-11.72-13.85-21.16-14,0,0,0,2.59,0,2.59,7.31-.31,14.14,2.96,18.34,8.99,1.14,1.6,2.12,3.36,2.85,5.18l.06,6.48c-.06-.15-.12-.29-.18-.44-4.7-10.73-15.25-15.94-26.6-16.06,0,0,0,2.59,0,2.59,10.69-.37,20.7,4.06,25.58,13.95.47.95.9,1.94,1.23,2.94l.05,4.96c-.07-.17-.14-.34-.21-.51-4.63-10.44-15.28-15.18-26.25-15.31,0,0,0,2.59,0,2.59,10.32-.36,20.41,3.59,25.22,13.2.49.98.93,2,1.26,3.04l.08,8.42c-3.66-10.76-12.1-19.21-24.26-19.36,0,0,0,2.59,0,2.59,9.19-.32,16.7,4.82,21.09,12.73,1.35,2.37,2.46,4.93,3.2,7.55l.16,17.25h.92l.16-17.24c1.58-5.4,4.47-10.62,8.59-14.46,4.22-4.01,9.94-6.01,15.71-5.83,0,0,0-2.59,0-2.59-6.28.08-12.59,2.61-16.93,7.16-3.37,3.46-5.78,7.68-7.33,12.21l.08-8.43c.77-2.41,2.04-4.71,3.57-6.71,5.27-7.08,14.37-9.85,22.92-9.54v-2.59c-3.05.07-6.11.44-9.08,1.23-7.45,1.84-14.08,7-17.17,14.07-.07.17-.14.34-.21.51l.05-4.95c.81-2.4,2.06-4.71,3.56-6.73Z"/>
</svg>
