<?xml version="1.0" encoding="UTF-8"?>
<svg id="Livello_1" data-name="Livello 1" xmlns="http://www.w3.org/2000/svg" viewBox="0 0 850 1080">
  <defs>
    <style>
      .cls-1 {
        fill: #caab66;
      }

      .cls-1, .cls-2 {
        stroke-width: 0px;
      }

      .cls-2 {
        fill: #fff;
      }
    </style>
  </defs>
  <path class="cls-1" d="m462.07,322.38c45.04-62.6,122.23-88.98,197.21-86.26v-21.97c-26.55.59-53.1,4.07-78.88,11.28-64.55,16.96-120.36,63.61-146.82,124.94-.51,1.27-1.02,2.46-1.53,3.73l.51-54.88c13.74-34.27,37.07-65.57,66.67-87.28,32.49-23.92,73.03-34.27,113.06-32.99v-21.97c-21.97.59-43.94,4.24-64.8,11.28-41.48,14-77.1,43.68-100.09,80.58-5.43,8.65-10.26,17.64-14.59,26.8l.59-59.29c3.99-9.58,9.16-18.91,15.01-27.31,25.11-37.49,69.3-56.49,113.66-53.86v-21.97c-16.46.59-32.91,3.31-48.6,8.65-31.3,10.35-58.19,32.83-74.56,61.07-1.87,3.22-3.56,6.45-5.26,9.67l.59-60.31c13.83-26.89,40.37-46.14,71.93-43.26v-21.97c-4.67.68-11.11.93-15.61,2.21-24,4.67-43.51,20.36-56.07,40.63l.85-93.9h-20.7l.85,93.81c-15.1-24.68-40.03-41.05-71.76-42.75v21.97c31.64-2.88,58.1,16.37,71.93,43.26l.59,59.97c-23.92-47.92-71.67-77.86-128.42-78.97v21.97c44.36-2.63,88.55,16.37,113.66,53.86,5.85,8.48,11.03,17.73,15.01,27.31l.59,59.29c-32.74-72.61-99.41-117.48-179.48-118.75v21.97c62-2.63,119.94,25.11,155.56,76.25,9.67,13.57,17.98,28.5,24.17,43.94l.51,54.96c-.51-1.27-1.02-2.46-1.53-3.73-39.87-91.01-129.35-135.2-225.62-136.22v21.97c90.67-3.14,175.58,34.44,216.97,118.32,3.99,8.06,7.63,16.46,10.43,24.94l.42,42.07c-.59-1.44-1.19-2.88-1.78-4.33-39.27-88.55-129.6-128.76-222.65-129.86v21.97c87.53-3.05,173.12,30.45,213.92,111.96,4.16,8.31,7.89,16.96,10.69,25.79l.68,71.42c-31.04-91.27-102.63-162.94-205.77-164.21v21.97c77.95-2.71,141.65,40.88,178.88,107.98,11.45,20.1,20.87,41.82,27.14,64.04l1.36,146.31h7.8l1.36-146.23c13.4-45.8,37.91-90.08,72.86-122.65,35.79-34.01,84.31-50.98,133.25-49.45v-21.97c-53.27.68-106.79,22.14-143.6,60.73-28.58,29.35-49.03,65.14-62.17,103.56l.68-71.5c6.53-20.44,17.3-39.95,30.28-56.91,44.7-60.05,121.89-83.55,194.41-80.92v-21.97c-25.87.59-51.82,3.73-77.02,10.43-63.19,15.61-119.43,59.37-145.64,119.34-.59,1.44-1.19,2.88-1.78,4.33l.42-41.99c6.87-20.36,17.47-39.95,30.2-57.08v.17Z"/>
  <g>
    <path class="cls-2" d="m116.41,921.62c-5.49,3.66-11.75,6.62-18.77,8.88-7.02,2.26-14.86,3.39-23.53,3.39-10.01,0-18.68-1.65-26-4.94-7.32-3.3-13.4-7.75-18.22-13.37-4.82-5.61-8.39-12.11-10.71-19.5-2.32-7.38-3.48-15.23-3.48-23.53s1.28-16.78,3.84-24.35c2.56-7.57,6.38-14.19,11.44-19.87,5.06-5.68,11.35-10.16,18.86-13.46,7.51-3.3,16.26-4.94,26.27-4.94,7.08,0,13.97.7,20.69,2.11,6.71,1.4,12.69,3.33,17.94,5.77l-3.84,13.18c-3.91-2.56-8.94-4.7-15.1-6.41-6.16-1.71-13.09-2.56-20.78-2.56-8.18,0-15.08,1.19-20.69,3.57-5.62,2.38-10.16,5.71-13.64,9.98-3.48,4.27-5.98,9.43-7.51,15.47-1.53,6.04-2.29,12.72-2.29,20.05,0,16.72,3.66,29.36,10.99,37.9,7.32,8.55,18.25,12.82,32.77,12.82,5.37,0,10.4-.55,15.1-1.65,4.7-1.1,9-2.5,12.91-4.21v-34.05h13.73v39.73Z"/>
    <path class="cls-2" d="m219.67,810.3h27.28c6.59,0,12.57.76,17.94,2.28,5.37,1.52,9.98,3.73,13.82,6.65,3.84,2.91,6.83,6.53,8.97,10.84,2.13,4.31,3.2,9.26,3.2,14.84,0,7.77-2.2,14.69-6.59,20.76-4.39,6.07-11.17,10.32-20.32,12.75l46.32,53.28h-17.03l-45.22-51.63c-5.37,0-10.25-.18-14.65-.55v52.18h-13.73v-121.39Zm28.38,11.9h-14.65v45.41c2.2.25,4.55.37,7.05.37h7.96c9.03,0,15.84-2.1,20.41-6.29,4.58-4.19,6.87-10.3,6.87-18.33,0-6.32-2.05-11.43-6.13-15.32-4.09-3.89-11.26-5.84-21.51-5.84Z"/>
    <path class="cls-2" d="m471.78,931.69h-69.94v-120.84h66.28v12.82h-52.55v37.53h40.28v12.82h-40.28v44.86h56.21v12.82Z"/>
    <path class="cls-2" d="m646.81,823.67h-38.63v108.02h-13.73v-108.02h-38.63v-12.82h90.99v12.82Z"/>
    <path class="cls-2" d="m834.29,931.69h-15.56l-17.76-40.65h-54.01l-16.11,40.65h-14.65l48.34-120.84h16.66l53.1,120.84Zm-82.21-53.46h43.21l-22.7-52-20.51,52Z"/>
  </g>
  <g>
    <path class="cls-1" d="m148.84,1022.16c2.68-.47,6.27-.84,11.01-.84,5.42,0,9.4,1.2,11.97,3.44,2.37,2.01,3.87,5.16,3.87,8.97s-1.18,6.98-3.39,9.18c-2.97,3.04-7.62,4.52-12.95,4.52-1.53,0-2.9-.07-4.04-.34v16.22h-6.46v-41.15Zm6.46,19.75c1.08.3,2.44.41,4.1.41,6.11,0,9.81-3.02,9.81-8.31s-3.57-7.64-9.16-7.64c-2.23,0-3.87.2-4.75.39v15.14Z"/>
    <path class="cls-1" d="m210,1050.87l-3.93,12.44h-6.72l13.77-41.67h8.08l13.88,41.67h-6.96l-4.12-12.44h-14Zm12.83-4.98l-3.7-11.13c-.85-2.65-1.51-5.31-2.13-7.72h-.14c-.6,2.44-1.25,5.16-2.02,7.67l-3.66,11.18h11.66Z"/>
    <path class="cls-1" d="m265.74,1021.64h6.51v36.2h17.47v5.46h-23.99v-41.67Z"/>
    <path class="cls-1" d="m355.51,1045.66c-.29-5.58-.61-12.34-.58-17.75h-.17c-1.41,4.97-3.14,10.41-5.08,15.9l-6.74,19.12h-4.96l-6.16-18.81c-1.81-5.62-3.36-11.12-4.49-16.21h-.14c-.16,5.32-.42,12.12-.78,18.08l-1.02,17.31h-6.1l2.84-41.67h8.44l6.26,18.45c1.61,5.01,2.97,9.78,4.01,14.27h.17c1.11-4.39,2.55-9.23,4.29-14.29l6.61-18.44h8.38l2.49,41.67h-6.35l-.9-17.65Z"/>
    <path class="cls-1" d="m439.67,1021.64v17.06h18.87v-17.06h6.51v41.67h-6.51v-18.97h-18.87v18.97h-6.51v-41.67h6.51Z"/>
    <path class="cls-1" d="m535.13,1042.06c0,14.12-8.58,21.93-19.64,21.93s-18.97-8.78-18.97-21.17,8.13-21.86,19.57-21.86,19.04,8.95,19.04,21.1Zm-31.75.62c0,8.71,4.57,16.08,12.45,16.08s12.43-7.35,12.43-16.44c0-8.08-4.11-16.12-12.39-16.12s-12.49,7.65-12.49,16.48Z"/>
    <path class="cls-1" d="m573.01,1027.11h-12.29v-5.47h31.19v5.47h-12.38v36.19h-6.51v-36.19Z"/>
    <path class="cls-1" d="m643.79,1044.3h-15.93v13.64h17.81v5.37h-24.32v-41.67h23.39v5.37h-16.88v11.95h15.93v5.33Z"/>
    <path class="cls-1" d="m677.17,1021.64h6.51v36.2h17.47v5.46h-23.99v-41.67Z"/>
  </g>
</svg>